<svg xmlns="http://www.w3.org/2000/svg" width="13.337" height="16" viewBox="0 0 13.337 16">
    <g data-name="Group 41417" style="opacity:.9">
        <path data-name="Path 28753" d="M112 200.569v-8.056a9.7 9.7 0 0 1 6.675 2.584 9.86 9.86 0 0 1 3.073-1.922 9.642 9.642 0 0 1 3.59-.676v8.071a9.92 9.92 0 0 0-6.666 2.607 9.881 9.881 0 0 0-6.672-2.608zm1.5-6.466a.678.678 0 0 0-.014.087v4.888c0 .11.056.133.144.143a11.2 11.2 0 0 1 4.913 1.96.2.2 0 0 0 .284 0 11.261 11.261 0 0 1 4.867-1.946c.153-.023.186-.074.186-.211q-.007-2.366 0-4.732v-.225c-.53.161-1.032.289-1.516.464a8.012 8.012 0 0 0-2.752 1.733c-.3.285-.613.561-.939.866a9.065 9.065 0 0 0-5.173-3.03z" transform="translate(-112 -187.178)" style="fill:#1d1d1b"/>
        <path data-name="Path 28754" d="M198 83.612a3.095 3.095 0 1 1-.9-2.2 3.1 3.1 0 0 1 .9 2.2zm-3.1 1.545a1.55 1.55 0 1 0-1.556-1.54 1.55 1.55 0 0 0 1.556 1.54z" transform="translate(-188.225 -80.5)" style="fill:#1d1d1b"/>
    </g>
</svg>