
<svg xmlns="http://www.w3.org/2000/svg" width="34.102" height="34.102" viewBox="0 0 34.102 34.102">
  <g id="user" transform="translate(-69.772 -70.456)">
    <g id="Group_42618" data-name="Group 42618" transform="translate(69.772 70.456)">
      <path id="Path_29188" data-name="Path 29188" d="M73.16,97.584c-.413-.614-.853-1.2-1.23-1.842A16.968,16.968,0,0,1,69.8,86.593a17.084,17.084,0,0,1,4.157-10.221,17.338,17.338,0,0,1,5.074-4,17.028,17.028,0,0,1,5-1.677,15.46,15.46,0,0,1,3.679-.211,17.388,17.388,0,0,1,6.138,1.494,17.139,17.139,0,0,1,4.129,2.649,17.327,17.327,0,0,1,4,5.069,15.738,15.738,0,0,1,1.67,5,19.788,19.788,0,0,1,.211,3.6,15.413,15.413,0,0,1-1.56,6.316c-.5.972-1.092,1.888-1.642,2.832a.7.7,0,0,1-.147.138c-.312-.376-.615-.761-.954-1.118a16.816,16.816,0,0,0-15.764-5.39,16.124,16.124,0,0,0-8.7,4.409C74.4,96.145,73.793,96.887,73.16,97.584ZM86.832,75.419A6.586,6.586,0,1,0,93.42,82.01,6.593,6.593,0,0,0,86.832,75.419Z" transform="translate(-69.772 -70.456)" fill="#1d1d1b" opacity="0.1"/>
      <path id="Path_29189" data-name="Path 29189" d="M106.7,299.363c.632-.7,1.236-1.452,1.914-2.109a16.029,16.029,0,0,1,8.681-4.449,16.654,16.654,0,0,1,15.732,5.439c.339.361.632.749.952,1.129-.339.444-.65.916-1.026,1.323a16.24,16.24,0,0,1-9.835,5.421c-6.621.971-12.069-1.258-16.281-6.512A1.251,1.251,0,0,1,106.7,299.363Z" transform="translate(-103.284 -272.235)" fill="#cae1cc"/>
      <path id="Path_29190" data-name="Path 29190" d="M190.451,124.6a6.646,6.646,0,1,1-6.651,6.642A6.65,6.65,0,0,1,190.451,124.6Z" transform="translate(-173.391 -119.592)" fill="#1d1d1b" opacity="0.4"/>
    </g>
  </g>
</svg>